<?xml version="1.0" encoding="utf-8"?>
<svg width="1280" height="301" viewBox="0 0 1280 301" fill="none" xmlns="http://www.w3.org/2000/svg">
<path d="M456.73 72.869C467.609 74.8022 475.986 78.8581 482.999 85.6433C492.551 94.8543 497.82 107.477 499.45 124.8C499.677 127.226 499.829 141.782 499.829 159.559V190.187H475.948V159.559C475.948 129.045 475.721 122.753 474.584 117.446C472.423 107.477 466.927 100.502 458.929 97.5456C454.418 95.8778 452.56 95.6124 445.813 95.6124C439.256 95.6124 437.284 95.8778 433.115 97.394C428.377 99.0619 424.586 102.056 421.781 106.226C419.734 109.296 418.749 111.609 417.27 117.029L416.247 120.63L416.019 225.06H391.798V176.617C391.798 145.383 391.949 126.657 392.215 123.852C393.049 114.869 395.437 105.923 398.886 99.024C401.577 93.6413 403.624 90.7605 407.87 86.4014C415.982 78.0621 426.292 73.5513 440.506 72.1488C443.463 71.8456 453.432 72.3005 456.73 72.869Z" fill="#3D5339"/>
<path fill-rule="evenodd" clip-rule="evenodd" d="M831.314 73.0586C842.799 75.295 851.1 79.6163 858.227 87.1216C865.884 95.1576 870.47 105.657 872.707 120.062C873.313 123.928 873.389 127.339 873.389 149.818C873.389 168.657 873.275 176.086 872.896 178.626C870.394 195.873 865.012 207.207 855.232 215.887C849.016 221.383 841.814 224.871 832.223 227.031C828.736 227.789 827.296 227.903 819.563 227.903C810.238 227.903 807.964 227.6 801.368 225.553C786.168 220.815 775.289 210.239 769.982 194.887C768.163 189.618 766.798 183.629 766.116 177.868C765.282 170.741 765.282 129.273 766.116 122.146C767.898 106.833 772.863 95.3092 781.43 86.5909C789.807 78.0242 799.966 73.5513 814.256 72.1488C817.819 71.8077 827.334 72.3005 831.314 73.0586ZM812.255 96.1729C812.976 96.0272 813.608 95.8993 813.877 95.8503C815.469 95.4713 826.841 95.9641 828.85 96.4947C834.195 97.8973 837.379 99.6409 840.753 102.939C845.832 107.98 848.447 114.614 849.319 124.81C849.812 130.761 849.812 169.804 849.281 175.869C848.447 185.497 846.021 191.941 841.321 196.983C837.531 201.039 833.171 203.351 827.258 204.412C825.969 204.64 822.292 204.829 819.033 204.829C814.37 204.829 812.475 204.64 810.087 204.033C799.018 201.228 792.347 192.965 790.338 179.622C789.883 176.476 789.807 171.283 789.883 148.35L790.035 120.83L791.02 117.229C792.499 111.847 793.484 109.534 795.531 106.426C799.094 101.119 804.363 97.7077 811.034 96.4189C811.438 96.3383 811.86 96.2529 812.255 96.1729Z" fill="#3D5339"/>
<path d="M988.205 72.3005C997.909 73.2481 1006.4 76.0531 1013.45 80.7155C1016.48 82.7245 1022.59 88.7136 1024.97 92.0114C1029.29 98.0005 1033.2 108.083 1034.68 117.029C1036.04 125.141 1036.19 129.614 1036.19 160.128V190.187H1012.39L1012.2 157.095C1012.09 128.969 1011.97 123.511 1011.44 120.441C1009.17 106.946 1003.1 99.4788 991.958 96.5222C987.409 95.2713 978.805 95.1197 973.839 96.1431C964.021 98.1521 957.35 104.293 954.355 114.148C954.298 114.335 954.243 114.516 954.189 114.691C953.963 115.424 953.764 116.07 953.588 116.723C952.266 121.633 952.255 126.896 952.162 171.725L952.005 225.06H927.746L927.905 172.719C928.023 130.759 928.041 124.33 929.172 118.103C929.376 116.977 929.617 115.857 929.902 114.535C929.952 114.299 930.004 114.057 930.058 113.807C931.347 107.97 932.901 103.497 935.327 98.6828C940.179 89.1306 946.85 82.3076 955.758 77.8347C965.121 73.1344 976.454 71.2012 988.205 72.3005Z" fill="#3D5339"/>
<path d="M116.944 76.1289C119.256 77.1524 122.061 79.9195 123.122 82.3076C124.411 85.1884 124.335 89.5854 122.933 92.2767C121.568 94.8922 119.597 96.8254 117.02 98.0384C114.139 99.3651 109.742 99.403 107.05 98.1142C104.549 96.9012 102.312 94.6269 101.137 92.0872C99.8105 89.2064 99.7347 85.1505 100.986 82.3455C102.009 80.109 104.473 77.4556 106.482 76.3943C109.59 74.8022 113.722 74.6885 116.944 76.1289Z" fill="#BBB1A5"/>
<path d="M184.347 119.12C181.063 125.129 177.57 131.522 173.954 138.143C155.115 172.561 139.725 200.801 139.725 200.952C139.725 201.066 155.001 201.18 173.651 201.18H207.576V225.06H100L168.799 99.024L151.021 98.9102L133.281 98.8344V74.9539H170.846C191.504 74.9539 208.334 75.1055 208.259 75.2571C208.228 75.4102 198.134 93.8855 184.347 119.12Z" fill="#3D5339"/>
<path d="M341.004 98.8344H323.871C305.562 98.8723 298.588 99.1756 294.949 100.161C288.088 102.018 282.895 106.226 279.824 112.48C278.877 114.452 277.588 117.787 277.057 119.872L276.034 123.663L275.882 148.112C275.769 174.873 275.882 177.072 277.929 183.175C279.483 187.913 281.037 190.49 284.146 193.599C287.519 197.01 290.286 198.564 295.404 199.929L299.118 200.914L320.08 201.104L341.004 201.256V225.098L318.564 224.947L296.086 224.833L292.106 223.809C282.212 221.383 275.958 218.275 269.628 212.741C264.852 208.533 260.758 202.923 257.839 196.555C255.072 190.566 252.684 181.052 251.964 173.13C251.433 167.557 251.433 132.381 251.926 127.226C254.466 101.639 266.178 84.8472 286.23 78.0621C294.342 75.3329 297.185 75.0676 321.407 74.9918L341.004 74.9539V98.8344Z" fill="#3D5339"/>
<path d="M629.277 75.9773C631.854 76.8491 635.152 80.1469 636.024 82.6866C636.82 85.0368 636.858 89.0548 636.062 91.367C635.228 93.793 632.574 96.6738 629.921 97.9626C628.102 98.8344 627.268 99.024 624.728 99.024C622.188 99.024 621.354 98.8723 619.535 97.9626C612.75 94.6269 610.665 85.7949 615.289 79.73C618.436 75.5603 623.856 74.1199 629.277 75.9773Z" fill="#BBB1A5"/>
<path d="M720.667 75.9773C720.364 76.5838 704.86 104.937 686.173 139.014L652.247 200.99L686.325 201.104L720.44 201.18V225.06H612.75L613.394 223.809C613.603 223.416 619.426 212.754 628.126 196.826L628.527 196.092C633.99 186.088 640.55 174.079 647.547 161.265C665.969 127.529 681.169 99.6683 681.283 99.3651C681.435 98.9102 679.047 98.8344 663.809 98.8344H646.145V74.9539H721.236L720.667 75.9773Z" fill="#3D5339"/>
<path d="M1179.48 98.8344H1162.34C1141.31 98.8723 1136.8 99.1377 1132.06 100.73C1127.58 102.208 1125.65 103.383 1122.62 106.416C1119.09 109.903 1116.89 114.414 1115.19 121.578C1114.62 124.08 1114.51 127.112 1114.39 147.733C1114.2 176.92 1114.43 179.384 1118.34 187.534C1121.33 193.788 1126.67 198.071 1133.61 199.853C1137.52 200.876 1143.96 201.142 1162.34 201.18H1179.48V225.098L1157.23 224.947C1136.23 224.833 1134.75 224.757 1131.41 224.037C1120.46 221.535 1112.73 217.403 1105.9 210.429C1097.87 202.203 1093.39 192.272 1090.93 177.299C1089.98 171.5 1089.68 134.921 1090.55 126.885C1092.26 110.358 1097.37 98.1521 1106.28 89.358C1111.7 83.9754 1117.01 80.7155 1124.51 78.1758C1132.82 75.3329 1135.81 75.0676 1159.88 74.9918L1179.48 74.9539V98.8344Z" fill="#3D5339"/>
<path d="M316.214 139.09C318.564 140.189 320.876 142.464 322.051 144.89C322.809 146.444 322.961 147.354 322.961 150.007C322.961 153.798 322.051 156.072 319.587 158.536C317.161 160.962 314.849 161.909 311.248 161.909C307.268 161.909 304.918 160.886 302.378 158.119C298.133 153.494 298.095 146.671 302.227 142.047C304.008 140.038 305.259 139.242 307.837 138.37C309.959 137.688 313.939 137.991 316.214 139.09Z" fill="#BBB1A5"/>
<path d="M1155.1 139.204C1160.07 141.668 1162.8 147.96 1161.28 153.494C1160.22 157.209 1156.66 160.545 1152.56 161.606C1147.11 163.009 1141.65 160.545 1138.99 155.541C1138.08 153.836 1137.97 153.191 1137.97 150.007C1137.97 146.823 1138.08 146.179 1138.99 144.473C1140.06 142.464 1142.29 140.227 1144.19 139.204C1147.3 137.612 1151.81 137.612 1155.1 139.204Z" fill="#BBB1A5"/>
<path d="M492.02 201.786C494.446 202.62 497.592 205.577 498.73 208.079C499.943 210.808 499.98 215.356 498.805 217.934C497.592 220.587 495.242 222.9 492.589 224.113C490.504 225.022 489.935 225.136 487.168 224.984C482.392 224.719 479.094 222.596 477.048 218.427C473.863 211.907 476.972 204.174 483.795 201.71C485.766 201.028 489.86 201.066 492.02 201.786Z" fill="#BBB1A5"/>
<path d="M1028.84 202.089C1033.35 204.174 1035.93 208.041 1035.97 212.741C1036 217.707 1033.88 221.421 1029.71 223.734C1027.85 224.757 1027.36 224.871 1024.06 224.871C1020.77 224.871 1020.27 224.757 1018.42 223.734C1015.5 222.104 1013.6 219.791 1012.65 216.607C1010.83 210.694 1013.41 204.894 1018.95 202.241C1022.02 200.801 1025.96 200.725 1028.84 202.089Z" fill="#BBB1A5"/>
</svg>
